<svg width="512" height="512" viewBox="0 0 512 512" fill="none" xmlns="http://www.w3.org/2000/svg">
<path d="M296 452C290.48 452 286 456.48 286 462C286 467.52 290.48 472 296 472C301.52 472 306 467.52 306 462C306 456.48 301.52 452 296 452Z" fill="white"/>
<path d="M436 46H406V30C406 13.458 392.542 0 376 0H136C119.458 0 106 13.458 106 30V46H76C59.458 46 46 59.458 46 76C46 141.057 76.442 188.867 125.828 202.178C142.758 239.443 169.526 271.122 203.502 294.013C211.328 299.286 216 308.313 216 318.16V373.259C209.145 375.017 202.856 378.581 197.719 383.719C190.162 391.277 186 401.32 186 412H176C159.458 412 146 425.458 146 442V502C146 507.523 150.478 512 156 512H356C361.522 512 366 507.523 366 502V442C366 425.458 352.542 412 336 412H326C326 393.396 313.233 377.717 296 373.266V318.21C296 308.331 300.675 299.287 308.508 294.014C342.487 271.121 369.255 239.441 386.184 202.175C435.563 188.859 466 141.052 466 76C466 59.458 452.542 46 436 46ZM66 76C66 70.486 70.486 66 76 66H106V110.7C106 133.495 109.453 155.817 116.27 177.314C84.447 161.551 66 125.146 66 76ZM336 432C341.514 432 346 436.486 346 442V492H166V442C166 436.486 170.486 432 176 432H336ZM386 110.7C386 138.016 380.562 164.596 369.834 189.7C354.574 225.417 329.504 255.752 297.336 277.425C283.976 286.418 276 301.665 276 318.21V382C276 387.523 280.478 392 286 392C297.028 392 306 400.972 306 412H206C206 406.662 208.082 401.641 211.861 397.861C215.455 394.267 220.172 392.209 225.216 392.015C225.475 392.035 225.736 392.045 225.999 392.045C231.521 392.045 235.999 387.523 235.999 382V318.16C235.999 301.65 228.028 286.423 214.677 277.427C182.506 255.753 157.436 225.418 142.174 189.698C131.442 164.603 126 138.024 126 110.7V30C126 24.486 130.486 20 136 20H376C381.514 20 386 24.486 386 30V110.7ZM395.734 177.312C402.548 155.81 406 133.489 406 110.7V66H436C441.514 66 446 70.486 446 76C446 125.143 427.555 161.547 395.734 177.312Z" fill="white"/>
<path d="M335.139 118.16C334.563 116.385 333.501 114.807 332.075 113.604C330.648 112.401 328.913 111.622 327.066 111.354L283.91 105.09L264.607 65.9751C263.781 64.3015 262.504 62.8923 260.919 61.907C259.334 60.9216 257.505 60.3994 255.639 60.3994C253.773 60.3994 251.944 60.9216 250.359 61.907C248.774 62.8923 247.497 64.3015 246.671 65.9751L227.368 105.09L184.213 111.354C182.366 111.622 180.632 112.402 179.205 113.605C177.778 114.808 176.717 116.386 176.14 118.16C175.563 119.935 175.495 121.836 175.942 123.647C176.389 125.459 177.334 127.109 178.67 128.412L209.904 158.852L202.532 201.839C202.217 203.678 202.422 205.569 203.126 207.297C203.829 209.025 205.001 210.523 206.511 211.619C208.02 212.716 209.807 213.369 211.668 213.503C213.529 213.638 215.39 213.249 217.042 212.381L255.64 192.088L294.247 212.381C295.899 213.25 297.76 213.638 299.622 213.504C301.483 213.369 303.269 212.717 304.779 211.619C306.289 210.522 307.461 209.025 308.164 207.296C308.866 205.567 309.071 203.676 308.755 201.837L301.375 158.851L332.608 128.412C333.944 127.11 334.89 125.459 335.337 123.647C335.784 121.836 335.716 119.935 335.139 118.16ZM283.65 148.198C282.489 149.33 281.62 150.728 281.119 152.27C280.618 153.812 280.499 155.454 280.774 157.052L285.615 185.249L260.292 171.938C258.857 171.184 257.26 170.79 255.639 170.79C254.018 170.79 252.421 171.184 250.986 171.939L225.671 185.249L230.507 157.05C230.781 155.452 230.662 153.811 230.161 152.269C229.66 150.727 228.791 149.33 227.63 148.198L207.146 128.234L235.447 124.126C237.052 123.893 238.576 123.273 239.888 122.32C241.2 121.367 242.26 120.109 242.978 118.655L255.64 92.9961L268.302 118.655C269.02 120.109 270.08 121.367 271.392 122.32C272.704 123.273 274.228 123.893 275.833 124.126L304.135 128.234L283.65 148.198ZM256 452H216C210.478 452 206 456.477 206 462C206 467.523 210.478 472 216 472H256C261.522 472 266 467.523 266 462C266 456.477 261.522 452 256 452ZM410.01 482H415.585C412.745 481.437 410.835 481.381 410.01 482Z" fill="white"/>
</svg>
