<svg width="512" height="512" viewBox="0 0 512 512" fill="none" xmlns="http://www.w3.org/2000/svg">
<path d="M350.717 302.676C351.947 302.791 353.185 302.579 354.306 302.061C355.428 301.543 356.392 300.737 357.101 299.726C357.811 298.715 358.24 297.534 358.346 296.304C358.451 295.073 358.23 293.836 357.703 292.719L332.107 238.493C338.375 236.804 343.972 233.486 348.981 228.477C358.551 218.906 362.01 207.219 359.556 192.748C357.918 183.08 361.713 173.917 369.708 168.239C381.676 159.739 387.495 149.029 387.495 135.496C387.495 121.963 381.677 111.253 369.708 102.753C361.713 97.075 357.918 87.912 359.557 78.242C362.006 63.766 358.546 52.08 348.98 42.514C339.409 32.943 327.721 29.483 313.252 31.939C303.584 33.577 294.421 29.782 288.742 21.787C280.241 9.818 269.531 4 255.999 4C242.467 4 231.756 9.818 223.256 21.787C217.577 29.782 208.412 33.578 198.746 31.938C184.27 29.489 172.584 32.948 163.018 42.515C153.452 52.082 149.989 63.772 152.443 78.244C154.081 87.912 150.286 97.075 142.29 102.753C130.322 111.254 124.504 121.964 124.504 135.496C124.504 149.028 130.322 159.739 142.29 168.238C150.285 173.917 154.081 183.08 152.442 192.749C149.993 207.224 153.452 218.911 163.019 228.477C168.137 233.595 173.868 236.948 180.299 238.601L154.672 292.895C154.145 294.012 153.922 295.249 154.028 296.48C154.133 297.711 154.563 298.892 155.272 299.903C155.982 300.915 156.946 301.72 158.068 302.238C159.189 302.756 160.428 302.968 161.658 302.852L191.138 300.081L210.055 322.861C210.844 323.811 211.871 324.536 213.031 324.961C214.191 325.386 215.442 325.497 216.659 325.282C217.875 325.066 219.013 324.533 219.957 323.736C220.901 322.939 221.617 321.906 222.032 320.743L242.094 264.574C246.364 266.188 250.987 266.991 256 266.991C261.164 266.991 265.914 266.137 270.29 264.424L290.343 320.567C290.759 321.73 291.475 322.763 292.419 323.559C293.362 324.356 294.5 324.889 295.716 325.105C296.933 325.32 298.184 325.209 299.344 324.784C300.504 324.359 301.531 323.635 302.32 322.685L321.237 299.905L350.717 302.676ZM212.978 304.469L199.545 288.294C198.817 287.418 197.887 286.732 196.834 286.297C195.781 285.862 194.638 285.69 193.504 285.797L172.572 287.765L195.348 239.513C196.485 239.394 197.618 239.241 198.746 239.053C208.415 237.415 217.578 241.21 223.255 249.205C225.35 252.155 227.582 254.728 229.955 256.936L212.977 304.47L212.978 304.469ZM234.67 241.098C227.165 230.531 215.764 224.664 203.283 224.664C200.979 224.666 198.679 224.862 196.408 225.249C186.327 226.958 179.303 224.962 172.918 218.577C166.535 212.194 164.539 205.168 166.245 195.085C168.802 179.992 162.877 165.689 150.396 156.823C142.06 150.903 138.503 144.524 138.503 135.494C138.503 126.464 142.06 120.086 150.396 114.165C162.878 105.3 168.803 90.996 166.245 75.902C164.536 65.823 166.531 58.798 172.917 52.412C179.3 46.028 186.324 44.034 196.408 45.74C211.499 48.3 225.805 42.372 234.67 29.892C240.591 21.556 246.97 17.999 255.999 17.999C265.028 17.999 271.407 21.556 277.329 29.893C286.193 42.372 300.494 48.294 315.592 45.741C325.669 44.032 332.695 46.027 339.082 52.413C345.465 58.795 347.46 65.821 345.755 75.903C343.197 90.996 349.121 105.3 361.603 114.165C369.939 120.086 373.496 126.465 373.496 135.494C373.496 144.523 369.939 150.902 361.602 156.823C349.121 165.688 343.196 179.992 345.754 195.086C347.463 205.165 345.468 212.19 339.082 218.576C332.699 224.96 325.675 226.957 315.591 225.249C300.498 222.69 286.194 228.616 277.329 241.097C271.407 249.434 265.028 252.991 255.999 252.991C246.97 252.991 240.591 249.434 234.67 241.098ZM312.827 288.118L299.395 304.292L282.366 256.617C284.617 254.479 286.743 252.018 288.742 249.204C294.421 241.209 303.584 237.414 313.253 239.053C314.57 239.276 315.857 239.433 317.128 239.557L339.799 287.587L318.867 285.62C317.733 285.513 316.59 285.685 315.537 286.12C314.484 286.556 313.554 287.241 312.826 288.118H312.827ZM341.185 135.495C341.185 88.523 302.971 50.309 255.999 50.309C209.027 50.309 170.813 88.523 170.813 135.495C170.813 182.467 209.027 220.681 255.999 220.681C302.971 220.681 341.185 182.467 341.185 135.495ZM255.999 206.681C216.747 206.681 184.813 174.747 184.813 135.495C184.813 96.243 216.747 64.309 255.999 64.309C295.251 64.309 327.185 96.243 327.185 135.495C327.185 174.747 295.251 206.681 255.999 206.681ZM312.09 117.509C310.768 113.44 307.31 110.58 303.066 110.047L277.038 106.776L265.884 83.033C264.065 79.161 260.277 76.756 255.999 76.756C251.721 76.756 247.934 79.162 246.115 83.033L234.96 106.776L208.933 110.047C204.687 110.58 201.229 113.44 199.909 117.507C198.586 121.575 199.703 125.921 202.824 128.848L221.958 146.794L217.027 172.558C216.223 176.76 217.873 180.932 221.333 183.445C224.793 185.96 229.271 186.24 233.02 184.177L255.999 171.526L278.98 184.178C280.596 185.074 282.412 185.546 284.26 185.55C286.509 185.55 288.743 184.842 290.663 183.447C294.124 180.933 295.775 176.761 294.971 172.558L290.04 146.793L309.175 128.846C312.294 125.919 313.41 121.574 312.089 117.508L312.09 117.509ZM277.652 139.219C276.791 140.026 276.148 141.039 275.783 142.161C275.418 143.284 275.344 144.481 275.566 145.64L279.99 168.753L259.375 157.404C258.341 156.835 257.18 156.536 255.999 156.536C254.819 156.536 253.657 156.835 252.623 157.404L232.008 168.754L236.432 145.641C236.654 144.482 236.579 143.285 236.214 142.162C235.85 141.04 235.207 140.028 234.346 139.22L217.181 123.121L240.531 120.186C241.702 120.039 242.817 119.598 243.772 118.904C244.727 118.21 245.491 117.286 245.993 116.217L256 94.918L266.006 116.217C266.508 117.285 267.272 118.209 268.227 118.903C269.182 119.597 270.297 120.038 271.468 120.186L294.818 123.121L277.653 139.22L277.652 139.219ZM196.832 354.784C190.802 334.287 175.822 322.805 158.476 309.509C139.613 295.051 118.237 278.667 99.019 245.423C94.637 237.231 86.471 232.275 77.144 232.158C71.244 232.083 65.764 233.958 61.371 237.387C56.202 204.635 53.08 159.727 53.08 140.733C53.08 124.7 43.857 115.67 34.717 113.831C24.722 111.82 15.233 117.748 10.545 128.933C4.03801 144.463 3.33401 205.678 4.40301 235.001C5.39101 262.082 7.23201 283.334 22 310.27C29.021 323.076 37.615 335.532 45.927 347.578C49.422 352.644 52.724 357.429 55.767 362.04C69.039 382.149 77.984 398.794 80.503 416.836C73.095 418.365 66.787 423.903 64.699 431.694L54.807 468.611C54.5686 469.499 54.5075 470.425 54.6272 471.337C54.7469 472.248 55.0451 473.127 55.5047 473.923C55.9643 474.719 56.5764 475.417 57.3058 475.977C58.0353 476.536 58.8679 476.946 59.756 477.184L173.875 507.762C174.763 508.001 175.689 508.062 176.601 507.942C177.512 507.822 178.391 507.523 179.187 507.063C179.983 506.604 180.681 505.992 181.24 505.262C181.8 504.533 182.21 503.701 182.448 502.813L192.34 465.896C194.602 457.457 191.255 448.827 184.609 443.933C199.095 402.881 202.86 375.274 196.832 354.785V354.784ZM178.817 462.271L170.737 492.426L70.141 465.472L78.221 435.317C78.6787 433.617 79.7921 432.167 81.3169 431.287C82.8418 430.406 84.6536 430.167 86.355 430.62L174.12 454.137C175.82 454.594 177.27 455.708 178.15 457.233C179.031 458.758 179.271 460.57 178.817 462.271ZM171.52 438.946L94.786 418.385C92.265 393.77 79.444 372.498 67.452 354.328C64.329 349.596 60.988 344.753 57.451 339.627C49.34 327.871 40.953 315.715 34.277 303.539C20.958 279.246 19.341 260.427 18.395 234.49C17.057 197.796 19.018 144.942 23.458 134.344C25.516 129.437 28.691 126.898 31.958 127.555C35.389 128.245 39.081 132.662 39.081 140.732C39.081 165.89 44.064 231.473 52.205 263.14L52.211 263.138C56.114 291.613 88.691 329.439 103.218 338.696C104.784 339.694 106.682 340.028 108.494 339.627C110.307 339.225 111.885 338.12 112.883 336.554C113.881 334.988 114.215 333.09 113.814 331.278C113.412 329.465 112.307 327.887 110.741 326.889C103.376 322.196 89.428 307.405 78.834 290.776C67.817 273.481 63.314 258.561 67.084 251.837C69.108 248.227 72.831 246.14 76.967 246.155C81.132 246.207 84.773 248.424 86.705 252.085C86.746 252.163 86.789 252.24 86.833 252.316C107.461 288.044 131.024 306.106 149.958 320.619C166.62 333.39 178.659 342.618 183.4 358.734C188.466 375.953 184.689 401.516 171.519 438.945L171.52 438.946ZM501.452 128.933C496.764 117.749 487.276 111.823 477.281 113.831C468.141 115.669 458.918 124.7 458.918 140.733C458.918 159.725 455.797 204.629 450.628 237.382C446.237 233.951 440.76 232.075 434.854 232.158C425.528 232.276 417.361 237.231 412.979 245.423C393.761 278.667 372.385 295.05 353.522 309.509C336.176 322.804 321.196 334.287 315.166 354.784C309.138 375.273 312.903 402.88 327.388 443.932C320.743 448.826 317.396 457.455 319.658 465.894L329.55 502.811C329.788 503.699 330.198 504.532 330.757 505.261C331.317 505.991 332.015 506.603 332.811 507.062C333.607 507.522 334.486 507.82 335.397 507.94C336.309 508.06 337.235 507.998 338.123 507.76L452.242 477.182C453.13 476.944 453.963 476.534 454.692 475.975C455.422 475.415 456.034 474.717 456.493 473.921C456.953 473.125 457.251 472.246 457.371 471.335C457.491 470.423 457.429 469.497 457.191 468.609L447.299 431.692C445.211 423.902 438.901 418.365 431.495 416.835C434.014 398.794 442.959 382.148 456.23 362.039C459.272 357.429 462.573 352.646 466.067 347.582C474.379 335.534 482.975 323.076 489.997 310.269C504.766 283.331 506.607 262.081 507.594 235C508.664 205.677 507.96 144.462 501.451 128.932L501.452 128.933ZM433.777 435.317L441.857 465.473L341.261 492.427L333.181 462.271C332.727 460.57 332.967 458.758 333.848 457.233C334.728 455.708 336.177 454.595 337.877 454.137L425.643 430.62C426.203 430.469 426.78 430.393 427.36 430.393C430.292 430.393 432.983 432.354 433.777 435.317ZM493.604 234.49C492.658 260.427 491.042 279.244 477.721 303.54C471.045 315.718 462.656 327.875 454.544 339.633C451.007 344.758 447.668 349.599 444.545 354.329C432.553 372.5 419.733 393.771 417.212 418.386L340.477 438.947C327.306 401.518 323.53 375.954 328.596 358.736C333.337 342.62 345.376 333.393 362.038 320.621C380.972 306.108 404.535 288.046 425.163 252.318C425.207 252.242 425.249 252.165 425.291 252.087C427.224 248.426 430.864 246.21 435.029 246.157C439.222 246.145 442.889 248.229 444.913 251.84C448.683 258.564 444.18 273.484 433.163 290.778C422.57 307.406 408.621 322.197 401.256 326.891C399.69 327.889 398.585 329.467 398.183 331.28C397.782 333.092 398.116 334.99 399.114 336.556C400.112 338.122 401.69 339.227 403.503 339.629C405.315 340.03 407.213 339.696 408.779 338.698C423.306 329.441 455.884 291.616 459.787 263.14L459.793 263.142C467.934 231.471 472.916 165.889 472.916 140.734C472.916 132.665 476.608 128.247 480.04 127.557C483.304 126.901 486.483 129.438 488.54 134.345C492.982 144.944 494.942 197.797 493.604 234.49ZM384.019 78.138C383.091 76.5302 382.839 74.6196 383.32 72.8264C383.8 71.0332 384.973 69.5043 386.581 68.576L403.815 58.626C405.422 57.7124 407.325 57.4714 409.109 57.9558C410.893 58.4401 412.413 59.6103 413.337 61.2111C414.261 62.812 414.515 64.7134 414.042 66.5004C413.57 68.2875 412.41 69.8151 410.815 70.75L393.581 80.7C392.785 81.1603 391.906 81.4591 390.995 81.5795C390.083 81.6998 389.157 81.6392 388.269 81.4013C387.381 81.1633 386.548 80.7526 385.819 80.1927C385.09 79.6328 384.478 78.9345 384.019 78.138ZM410.815 200.239C411.618 200.695 412.322 201.306 412.887 202.035C413.453 202.765 413.869 203.599 414.111 204.49C414.353 205.381 414.416 206.311 414.297 207.226C414.178 208.142 413.879 209.025 413.417 209.824C412.956 210.624 412.341 211.324 411.607 211.885C410.874 212.446 410.037 212.856 409.144 213.092C408.252 213.328 407.322 213.385 406.407 213.26C405.492 213.135 404.611 212.83 403.815 212.363L386.581 202.413C385.778 201.957 385.074 201.346 384.509 200.617C383.943 199.887 383.527 199.053 383.285 198.162C383.043 197.271 382.98 196.341 383.099 195.426C383.218 194.51 383.517 193.627 383.979 192.828C384.44 192.028 385.055 191.328 385.789 190.767C386.522 190.206 387.359 189.796 388.252 189.56C389.144 189.324 390.074 189.267 390.989 189.392C391.904 189.517 392.785 189.822 393.581 190.289L410.815 200.239ZM406.387 128.495H426.287C428.144 128.495 429.924 129.233 431.237 130.545C432.55 131.858 433.287 133.638 433.287 135.495C433.287 137.352 432.55 139.132 431.237 140.445C429.924 141.758 428.144 142.495 426.287 142.495H406.387C404.53 142.495 402.75 141.758 401.437 140.445C400.125 139.132 399.387 137.352 399.387 135.495C399.387 133.638 400.125 131.858 401.437 130.545C402.75 129.233 404.53 128.495 406.387 128.495ZM118.418 190.289C120.025 189.375 121.928 189.134 123.712 189.619C125.496 190.103 127.016 191.273 127.94 192.874C128.864 194.475 129.118 196.376 128.645 198.163C128.173 199.95 127.013 201.478 125.418 202.413L108.184 212.363C107.388 212.823 106.509 213.121 105.598 213.242C104.686 213.362 103.76 213.301 102.872 213.063C101.984 212.825 101.152 212.415 100.423 211.855C99.6933 211.295 99.0815 210.597 98.622 209.801C97.6938 208.193 97.4422 206.283 97.9227 204.489C98.4032 202.696 99.5763 201.167 101.184 200.239L118.418 190.289ZM78.711 135.495C78.711 133.638 79.4485 131.858 80.7613 130.545C82.074 129.233 83.8545 128.495 85.711 128.495H105.612C107.469 128.495 109.249 129.233 110.562 130.545C111.875 131.858 112.612 133.638 112.612 135.495C112.612 137.352 111.875 139.132 110.562 140.445C109.249 141.758 107.469 142.495 105.612 142.495H85.711C83.8545 142.495 82.074 141.758 80.7613 140.445C79.4485 139.132 78.711 137.352 78.711 135.495ZM98.622 61.188C99.0815 60.3917 99.6933 59.6938 100.423 59.1341C101.152 58.5744 101.984 58.1638 102.872 57.9259C103.76 57.688 104.686 57.6274 105.598 57.7475C106.509 57.8676 107.388 58.1661 108.184 58.626L125.418 68.576C126.221 69.0323 126.925 69.6428 127.49 70.3724C128.056 71.102 128.472 71.9362 128.714 72.8272C128.956 73.7181 129.019 74.648 128.9 75.5635C128.781 76.4789 128.482 77.3618 128.02 78.1613C127.559 78.9608 126.944 79.661 126.21 80.2218C125.477 80.7826 124.64 81.1927 123.747 81.4287C122.855 81.6647 121.925 81.7217 121.01 81.5967C120.095 81.4716 119.214 81.1669 118.418 80.7L101.184 70.75C99.5763 69.8217 98.4032 68.2928 97.9227 66.4996C97.4422 64.7064 97.6938 62.7958 98.622 61.188Z" fill="white"/>
</svg>
