<svg width="512" height="512" viewBox="0 0 512 512" fill="none" xmlns="http://www.w3.org/2000/svg">
<path d="M113.67 216.86C133.34 216.86 149.34 200.86 149.34 181.19C149.34 161.52 133.34 145.52 113.67 145.52C94 145.52 78 161.52 78 181.19C78 200.86 94 216.86 113.67 216.86ZM113.67 157.52C126.72 157.52 137.34 168.14 137.34 181.19C137.34 194.24 126.72 204.86 113.67 204.86C100.62 204.86 90 194.24 90 181.19C90 168.14 100.62 157.52 113.67 157.52ZM326.7 148.74C346.37 148.74 362.37 132.74 362.37 113.07C362.37 93.4 346.37 77.4 326.7 77.4C307.03 77.4 291.03 93.4 291.03 113.07C291.03 132.74 307.03 148.74 326.7 148.74ZM326.7 89.4C339.75 89.4 350.37 100.02 350.37 113.07C350.37 126.12 339.75 136.74 326.7 136.74C313.65 136.74 303.03 126.12 303.03 113.07C303.03 100.02 313.65 89.4 326.7 89.4ZM467.59 39.11L475.57 23.77C476.045 22.8558 476.277 21.8348 476.244 20.8052C476.21 19.7755 475.913 18.7716 475.38 17.89C474.845 17.0085 474.092 16.2796 473.193 15.7735C472.295 15.2673 471.281 15.001 470.25 15H415.42C412.11 15 409.42 17.69 409.42 21V85.45C400.42 87.59 392.72 94.58 392.72 106.06V149.66H306.9C295.37 149.66 285.41 153.81 277.29 161.99L258 181.45C254.73 184.74 251.53 186.94 247.28 188.81L226.87 197.77C222.98 197.6 219.04 198.58 215.36 200.7L185.77 217.78H96.64C65.21 217.78 39.64 243.35 39.64 274.78V311.5C39.64 330.99 53.87 346.64 73 349.37V414.85H41.75C38.44 414.85 35.75 417.54 35.75 420.85V491C35.75 494.31 38.44 497 41.75 497H464.55C467.86 497 470.55 494.31 470.55 491V337.67C470.55 334.36 467.86 331.67 464.55 331.67H417.66V294.17C417.66 280.63 411.06 268.77 399.55 261.63L363.54 239.29V195.03H408.31C424.74 195.03 438.11 181.66 438.11 165.23V106.07C438.11 94.57 430.43 87.58 421.45 85.45V63.21H470.28C472.38 63.21 474.32 62.12 475.41 60.32C475.945 59.4392 476.244 58.4351 476.277 57.405C476.311 56.3748 476.077 55.3535 475.6 54.44L467.59 39.11ZM85 262.28C85 258.97 82.31 256.28 79 256.28C75.69 256.28 73 258.97 73 262.28V337.22C60.49 334.73 51.64 324.51 51.64 311.51V274.79C51.64 249.98 71.83 229.79 96.64 229.79H187.37C188.42 229.79 189.46 229.51 190.37 228.99L221.35 211.1C224.39 209.35 227.36 209.28 230.18 210.91C233.88 213.04 236.56 217.72 236.56 222.02C236.56 225.31 235.03 227.86 232.03 229.59L223.46 234.54C223.45 234.55 223.44 234.55 223.42 234.56L194.7 251.14H144.48C141.17 251.14 138.48 253.83 138.48 257.14V310.74C138.48 312.82 139.55 314.74 141.32 315.84L177.76 338.45C187.33 344.39 192.6 353.87 192.6 365.13V399.79H168.81V375.35C168.81 363.04 163.25 352.38 153.15 345.33L118.22 320.95C118.21 320.94 118.2 320.94 118.18 320.93C118.07 320.85 117.95 320.78 117.83 320.71C117.78 320.68 117.72 320.64 117.67 320.61L117.31 320.43C117.25 320.4 117.19 320.37 117.13 320.35C117.03 320.31 116.92 320.27 116.81 320.23L116.57 320.14C116.49 320.11 116.41 320.1 116.33 320.08C116.22 320.05 116.11 320.02 116 320L115.8 319.97C115.67 319.95 115.54 319.92 115.41 319.91C115.35 319.9 115.28 319.9 115.21 319.9C115.08 319.89 114.94 319.88 114.81 319.88H114.77C114.7 319.88 114.63 319.89 114.56 319.89C114.45 319.89 114.34 319.9 114.23 319.91C114.12 319.92 114.02 319.94 113.92 319.95C113.83 319.96 113.75 319.97 113.66 319.99C113.54 320.01 113.43 320.04 113.31 320.07C113.24 320.09 113.17 320.1 113.1 320.13C112.98 320.16 112.87 320.2 112.76 320.24C112.69 320.27 112.62 320.29 112.55 320.32C112.45 320.36 112.34 320.41 112.24 320.46C112.16 320.5 112.08 320.53 112.01 320.57C111.92 320.62 111.83 320.67 111.75 320.72C111.67 320.77 111.58 320.82 111.5 320.87C111.42 320.92 111.35 320.97 111.28 321.02C111.19 321.08 111.11 321.14 111.02 321.21C110.95 321.26 110.89 321.32 110.82 321.38C110.74 321.45 110.66 321.52 110.58 321.6C110.51 321.67 110.45 321.74 110.38 321.81C110.31 321.88 110.25 321.95 110.18 322.03C110.1 322.12 110.04 322.21 109.97 322.31C109.93 322.36 109.89 322.41 109.85 322.47C109.84 322.48 109.84 322.49 109.83 322.51C109.75 322.62 109.69 322.74 109.62 322.85C109.59 322.91 109.55 322.96 109.52 323.02L109.34 323.38C109.31 323.44 109.28 323.5 109.26 323.56C109.22 323.66 109.18 323.77 109.14 323.88L109.05 324.12L108.99 324.36L108.9 324.69L108.87 324.88C108.85 325.01 108.82 325.14 108.81 325.28C108.8 325.34 108.8 325.41 108.8 325.47C108.79 325.61 108.78 325.74 108.78 325.87V414.89H85V262.28ZM286.02 346.74H253.13C249.82 346.74 247.13 349.43 247.13 352.74V399.79H204.6V365.13C204.6 349.78 197.12 336.34 184.08 328.25L150.48 307.4V263.14H196.3C197.35 263.14 198.39 262.86 199.3 262.34L228.33 245.58C230.49 245.33 232.65 244.75 234.78 243.81L266.21 230.01C270.41 228.16 273.94 226.13 277.64 223.42L286.01 217.28V346.74H286.02ZM147.44 399.79C144.13 399.79 141.44 402.48 141.44 405.79V414.86H120.79V337.38L146.29 355.17C153.17 359.97 156.81 366.95 156.81 375.34V399.78H147.44V399.79ZM47.75 426.86H141.44V485H47.74V426.86H47.75ZM153.44 411.79H247.13V485H153.43V411.79H153.44ZM259.14 358.74H352.84V485H259.14V358.74ZM369.84 331.67H358.83C355.52 331.67 352.83 334.36 352.83 337.67V346.74H333.81V269.26L359.31 287.05C366.19 291.85 369.83 298.83 369.83 307.22V331.67H369.84ZM458.53 485H364.83V343.67H458.52V485H458.53ZM426.09 106.06V165.22C426.09 175.04 418.1 183.02 408.29 183.02H357.52C354.21 183.02 351.52 185.71 351.52 189.02V242.62C351.52 244.7 352.59 246.62 354.36 247.72L393.21 271.82C401.23 276.8 405.64 284.73 405.64 294.17V331.67H381.85V307.23C381.85 294.92 376.29 284.26 366.19 277.21L331.26 252.83C329.43 251.55 327.03 251.4 325.05 252.43C324.077 252.937 323.261 253.7 322.691 254.638C322.122 255.576 321.82 256.653 321.82 257.75V346.73H298.03V205.43C298.03 203.17 296.76 201.1 294.74 200.08C292.72 199.06 290.3 199.26 288.48 200.59L270.56 213.73C267.55 215.94 264.81 217.52 261.4 219.01L248.4 224.72C248.51 223.83 248.57 222.93 248.57 222.01C248.57 215.6 245.79 209.16 241.31 204.53L252.11 199.79C257.74 197.32 262.19 194.27 266.52 189.9L285.82 170.45C291.68 164.54 298.58 161.67 306.91 161.67H398.74C402.05 161.67 404.74 158.98 404.74 155.67V106.07C404.74 98.71 411.49 96.75 415.47 96.75C416.55 96.74 426.09 97 426.09 106.06ZM455.51 41.88L460.37 51.22H421.43V27H460.37L455.51 36.34C454.6 38.07 454.6 40.14 455.51 41.88Z" fill="white"/>
</svg>
