<svg width="512" height="512" viewBox="0 0 512 512" fill="none" xmlns="http://www.w3.org/2000/svg">
<path d="M352.135 486.4H159.865C157.85 486.4 155.918 485.6 154.494 484.175C153.069 482.751 152.269 480.819 152.269 478.804V437.651C152.276 434.752 151.623 431.889 150.358 429.28C149.092 426.671 147.249 424.384 144.968 422.595C144.244 421.939 70.6488 346.726 70.6488 346.726C58.281 334.085 51.4703 317.384 51.4703 299.699V173.699C51.4703 155.247 66.4852 140.232 84.9398 140.232C103.101 140.232 118.114 155.003 118.407 173.159L119.441 258.657C119.489 261.359 119.727 264.048 120.16 266.695C121.199 265.215 122.363 263.828 123.642 262.551C130.162 256.028 138.229 252.665 146.792 252.653C155.462 252.653 163.418 255.964 169.475 262.029C189.929 282.51 223.793 316.386 244.208 336.799C248.915 341.496 252.89 346.874 256 352.752C259.11 346.874 263.084 341.497 267.789 336.799C288.199 316.386 322.071 282.51 342.52 262.036C348.568 255.982 356.602 252.653 365.143 252.653C373.771 252.665 381.839 256.029 387.924 262.117C389.642 263.834 390.81 265.227 391.837 266.695C392.27 264.035 392.514 261.339 392.553 258.629L393.593 173.19C393.889 155.004 408.899 140.233 427.06 140.233C445.515 140.233 460.53 155.248 460.53 173.7V299.7C460.53 317.385 453.719 334.086 441.351 346.727L367.756 421.94C362.394 426.256 359.731 431.745 359.731 437.652V478.805C359.731 480.819 358.931 482.751 357.506 484.176C356.082 485.6 354.15 486.4 352.135 486.4ZM167.464 471.208H344.539V437.651C344.539 427.233 349.153 417.549 357.215 410.99L430.491 336.104C440.064 326.317 445.339 313.39 445.339 299.699V173.699C445.339 163.621 437.139 155.427 427.061 155.427C417.143 155.427 408.949 163.491 408.789 173.409L407.75 258.848C407.481 275.437 401.384 291.532 390.577 304.19C387.891 307.33 383.183 307.751 379.987 305.141C378.449 303.881 377.465 302.07 377.247 300.094C377.029 298.117 377.593 296.135 378.82 294.57C383.847 288.154 383.33 279.008 377.618 273.293C373.955 269.631 369.695 267.852 365.177 267.845C360.661 267.845 356.448 269.591 353.272 272.771C332.82 293.252 298.949 327.128 278.536 347.538C268.903 357.178 263.597 369.992 263.597 383.618C263.597 385.633 262.797 387.565 261.372 388.989C259.948 390.414 258.016 391.214 256.001 391.214C253.986 391.214 252.054 390.414 250.63 388.989C249.205 387.565 248.405 385.633 248.405 383.618C248.405 369.992 243.099 357.178 233.464 347.538C208.545 322.622 183.632 297.7 158.726 272.771C157.173 271.204 155.324 269.962 153.286 269.116C151.248 268.27 149.062 267.838 146.856 267.845C142.308 267.852 138.043 269.633 134.818 272.86C128.67 279.008 128.155 288.154 133.18 294.57C134.406 296.135 134.97 298.118 134.752 300.094C134.533 302.07 133.549 303.882 132.011 305.141C128.808 307.751 124.105 307.33 121.423 304.19C110.619 291.532 104.522 275.436 104.25 258.877L103.214 173.38C103.054 163.491 94.8593 155.427 84.9418 155.427C74.8636 155.427 66.6644 163.622 66.6644 173.699V299.699C66.6644 313.389 71.9391 326.316 81.5124 336.104L154.788 410.99C162.85 417.549 167.466 427.233 167.466 437.651V471.208H167.464Z" fill="white"/>
<path d="M187.295 367.957C186.286 367.958 185.288 367.757 184.358 367.368C183.428 366.978 182.585 366.408 181.878 365.689L121.783 304.59C120.371 303.152 119.587 301.213 119.604 299.197C119.62 297.182 120.436 295.256 121.872 293.842C124.861 290.902 129.675 290.951 132.615 293.931L192.71 355.03C193.76 356.097 194.471 357.451 194.755 358.922C195.038 360.392 194.88 361.913 194.302 363.295C193.723 364.676 192.749 365.855 191.503 366.685C190.256 367.514 188.792 367.957 187.295 367.957ZM324.702 367.957C323.205 367.956 321.742 367.513 320.496 366.683C319.25 365.853 318.277 364.674 317.698 363.293C317.12 361.913 316.962 360.392 317.245 358.922C317.528 357.452 318.238 356.098 319.287 355.03L379.382 293.931C382.324 290.951 387.138 290.902 390.123 293.842C391.559 295.255 392.376 297.182 392.393 299.197C392.41 301.212 391.626 303.152 390.214 304.59L330.119 365.689C329.412 366.408 328.569 366.978 327.639 367.368C326.709 367.757 325.711 367.958 324.702 367.957ZM401.152 184.103H110.848C108.833 184.103 106.901 183.303 105.477 181.878C104.052 180.454 103.252 178.521 103.252 176.507C103.252 174.492 104.052 172.56 105.477 171.136C106.901 169.711 108.833 168.911 110.848 168.911H401.152C403.167 168.911 405.099 169.711 406.523 171.136C407.948 172.56 408.748 174.492 408.748 176.507C408.748 178.521 407.948 180.454 406.523 181.878C405.099 183.303 403.167 184.103 401.152 184.103ZM332.506 221.606H111.304C107.108 221.606 103.705 218.205 103.705 214.01C103.705 209.815 107.107 206.414 111.304 206.414H332.505C333.503 206.414 334.49 206.61 335.412 206.992C336.334 207.374 337.171 207.933 337.876 208.639C338.582 209.344 339.141 210.181 339.523 211.103C339.905 212.025 340.101 213.012 340.101 214.01C340.101 215.007 339.905 215.995 339.524 216.917C339.142 217.838 338.583 218.676 337.877 219.381C337.172 220.087 336.335 220.646 335.413 221.028C334.491 221.41 333.504 221.606 332.506 221.606ZM199.301 149.426C197.964 149.425 196.652 149.071 195.495 148.401C194.339 147.73 193.38 146.766 192.716 145.606C192.051 144.447 191.704 143.132 191.71 141.795C191.716 140.459 192.074 139.147 192.749 137.993L206.099 115.175C210.517 107.618 209.534 98.1883 203.657 91.7023C191.976 78.8296 191.542 59.0346 202.642 45.6571L217.01 28.3443C217.647 27.5765 218.429 26.9417 219.311 26.4761C220.193 26.0104 221.158 25.7231 222.151 25.6305C223.145 25.5379 224.146 25.6418 225.099 25.9363C226.052 26.2308 226.938 26.7101 227.706 27.3469C228.474 27.9837 229.108 28.7655 229.574 29.6477C230.04 30.5298 230.327 31.495 230.42 32.4882C230.512 33.4814 230.408 34.4831 230.114 35.4361C229.819 36.3892 229.34 37.2749 228.703 38.0426L214.333 55.3626C208.035 62.9535 208.284 74.1888 214.91 81.495C225.269 92.9198 227 109.538 219.217 122.844L205.865 145.664C205.195 146.81 204.236 147.76 203.085 148.42C201.933 149.08 200.629 149.427 199.301 149.426ZM249.915 149.426C248.579 149.425 247.266 149.071 246.11 148.4C244.954 147.729 243.996 146.765 243.331 145.606C242.666 144.446 242.319 143.132 242.325 141.795C242.331 140.459 242.689 139.147 243.363 137.993L256.711 115.175C261.13 107.618 260.15 98.1832 254.273 91.7023C242.592 78.8296 242.158 59.0346 253.256 45.6571L267.625 28.3443C268.912 26.7941 270.762 25.8182 272.768 25.6312C274.775 25.4441 276.773 26.0613 278.324 27.3469C279.092 27.9839 279.727 28.7659 280.192 29.6482C280.657 30.5305 280.944 31.4959 281.037 32.4892C281.129 33.4825 281.024 34.4842 280.729 35.4371C280.434 36.3899 279.954 37.2753 279.316 38.0426L264.949 55.3595C258.648 62.9504 258.897 74.1857 265.525 81.492C275.884 92.9167 277.611 109.535 269.827 122.841L256.479 145.662C255.81 146.809 254.852 147.76 253.7 148.421C252.548 149.081 251.243 149.428 249.915 149.426ZM300.533 149.426C299.196 149.425 297.884 149.071 296.728 148.4C295.572 147.729 294.613 146.765 293.948 145.606C293.284 144.446 292.937 143.132 292.942 141.795C292.948 140.459 293.306 139.147 293.98 137.993L307.328 115.175C311.746 107.618 310.768 98.1832 304.886 91.7023C293.21 78.8224 292.771 59.0305 303.874 45.6571L318.242 28.3443C319.528 26.7937 321.377 25.8175 323.383 25.6305C325.389 25.4434 327.387 26.0609 328.937 27.3469C330.488 28.633 331.464 30.4824 331.651 32.4882C331.838 34.4941 331.221 36.492 329.935 38.0426L315.565 55.3595C309.266 62.9504 309.513 74.1857 316.139 81.492C326.497 92.9167 328.228 109.527 320.445 122.841L307.098 145.664C306.427 146.81 305.469 147.76 304.317 148.421C303.165 149.081 301.86 149.427 300.533 149.426ZM256 446.827C253.985 446.827 252.053 446.026 250.629 444.602C249.204 443.177 248.404 441.245 248.404 439.23V383.62C248.404 381.606 249.204 379.673 250.629 378.249C252.053 376.824 253.985 376.024 256 376.024C258.015 376.024 259.947 376.824 261.371 378.249C262.796 379.673 263.596 381.606 263.596 383.62V439.23C263.596 441.245 262.796 443.177 261.371 444.602C259.947 446.026 258.015 446.827 256 446.827Z" fill="white"/>
</svg>
