<svg width="512" height="512" viewBox="0 0 512 512" fill="none" xmlns="http://www.w3.org/2000/svg">
<g clip-path="url(#clip0_2553_14)">
<path d="M219.11 458.78H212L210.78 410.32C210.27 390.26 202.46 373.25 187.57 359.77L171.67 345.38C160.52 335.29 149.37 325.2 138.21 315.09C133.32 310.68 127.21 308.44 121.09 308.31L119.74 254.56C119.56 247.51 116.65 240.95 111.53 236.08C106.41 231.2 99.69 228.61 92.66 228.79C85.63 228.97 79.07 231.89 74.2 237.02C69.33 242.15 66.74 248.84 66.92 255.88L70.01 377.85C70.38 393.01 76.27 405.86 87.52 416.05L105.56 432.39C113.35 439.42 117.46 448.29 117.79 458.8H111.32C104.25 458.8 98.49 464.55 98.49 471.63V499.24C98.49 506.3 104.24 512.04 111.32 512.04H219.12C226.18 512.04 231.92 506.3 231.92 499.24V471.6C231.9 464.53 226.16 458.78 219.11 458.78ZM133.8 458.65C133.44 443.69 127.38 430.48 116.29 420.48L98.26 404.15C90.39 397.03 86.27 388.04 86.01 377.43L82.92 255.46C82.85 252.7 83.87 250.07 85.8 248.04C87.73 246.01 90.3 244.86 93.06 244.79C95.83 244.72 98.46 245.74 100.48 247.67C102.5 249.6 103.66 252.19 103.73 254.96L105.2 313.15C103.633 314.261 102.191 315.538 100.9 316.96C96.17 322.18 93.77 328.95 94.12 336.02C94.48 343.08 97.54 349.57 102.76 354.3C116.71 366.95 130.69 379.59 144.67 392.21C147.95 395.17 153.02 394.91 155.98 391.63C158.94 388.35 158.68 383.28 155.4 380.32C141.43 367.71 127.46 355.07 113.51 342.43C111.46 340.57 110.25 338.01 110.11 335.22C109.97 332.43 110.91 329.77 112.76 327.72C116.61 323.47 123.22 323.14 127.47 326.97C138.62 337.08 149.77 347.17 160.93 357.26L176.83 371.65C188.34 382.08 194.38 395.22 194.78 410.73L195.99 458.79H133.8V458.65ZM215.89 496H114.49V474.8H215.89V496ZM437.81 237C432.93 231.87 426.37 228.95 419.32 228.77C412.31 228.58 405.59 231.18 400.46 236.06C395.33 240.94 392.41 247.5 392.23 254.55L390.88 308.3C384.76 308.44 378.67 310.68 373.78 315.09L324.43 359.76C309.54 373.24 301.73 390.25 301.22 410.31L300 458.78H292.9C285.84 458.78 280.1 464.53 280.1 471.61V499.22C280.1 506.28 285.84 512.02 292.9 512.02H400.7C407.77 512.02 413.53 506.28 413.53 499.22V471.6C413.53 464.53 407.78 458.77 400.7 458.77H394.21C394.56 448.27 398.68 439.39 406.48 432.35L424.51 416.02C435.76 405.84 441.66 392.98 442.02 377.83L445.11 255.85C445.27 248.83 442.69 242.13 437.81 237ZM397.51 496H296.11V474.8H397.51V496ZM426 377.44C425.74 388.04 421.62 397.03 413.75 404.16L395.73 420.48C384.64 430.48 378.57 443.68 378.18 458.65V458.78H316.02L317.23 410.72C317.63 395.21 323.66 382.06 335.18 371.64L384.52 326.98C387.54 324.26 391.73 323.63 395.29 325.01C395.5 325.11 395.71 325.19 395.93 325.27C397.15 325.84 398.28 326.65 399.24 327.71C401.09 329.75 402.03 332.42 401.89 335.21C401.75 338 400.54 340.57 398.5 342.42L385.08 354.56C375.59 363.15 366.11 371.74 356.61 380.31C353.33 383.27 353.07 388.34 356.03 391.62C358.99 394.9 364.06 395.16 367.34 392.2C376.84 383.62 386.34 375.03 395.83 366.43L409.25 354.29C414.47 349.56 417.54 343.07 417.89 336.01C418.25 328.94 415.84 322.17 411.11 316.96C409.813 315.526 408.361 314.242 406.78 313.13L408.25 254.96C408.32 252.19 409.48 249.6 411.5 247.67C413.53 245.74 416.16 244.7 418.92 244.79C421.69 244.86 424.28 246.02 426.21 248.04C428.14 250.07 429.16 252.7 429.09 255.46L426 377.44ZM344.66 330.34C371.11 306.23 387.73 271.53 387.73 233.02C387.73 228.6 384.15 225.01 379.72 225.01H132.28C127.86 225.01 124.27 228.59 124.27 233.02C124.27 251.27 128 268.67 134.75 284.49C134.9 284.93 135.08 285.35 135.3 285.75C147.2 312.87 167.97 335.25 193.93 349.17C194.22 349.36 194.52 349.53 194.83 349.69C194.94 349.74 195.05 349.78 195.16 349.83C213.36 359.35 234.05 364.74 255.97 364.74C289.42 364.74 319.99 352.21 343.25 331.6C343.78 331.22 344.25 330.8 344.66 330.34ZM342.27 310.03C338.53 297.61 335.78 285.9 333.94 274.55C333.76 273.43 333.62 272.39 333.48 271.39C332.83 266.71 332.22 262.29 329.17 256.56C328.19 254.72 325.22 249.1 319.12 248.21C313.08 247.33 309.01 251.46 305.74 254.78C300.63 259.97 298.2 261.71 292.86 259.32C283.19 254.97 274.09 247.22 269.55 241.01H371.43C369.62 267.43 358.9 291.42 342.27 310.03ZM151.26 282.15C159.53 267.11 164.18 263.85 166.28 263.29C168.74 262.63 173.11 265.41 178.16 268.62C185.82 273.49 196.32 280.15 211.3 282.14C211.42 282.16 211.54 282.17 211.65 282.18C236.79 284.39 239.63 289.72 239.64 289.77C239.66 289.84 240.44 296.98 210.51 316.18C203.52 319.95 198.7 325.66 195.16 331.4C176.19 319.62 160.84 302.5 151.26 282.15ZM209.4 338.9C212.15 334.69 215.02 331.9 218.29 330.18C218.49 330.07 218.69 329.96 218.89 329.83C247.42 311.57 258.28 298.45 255.21 285.94C251.66 271.48 230.96 267.8 213.25 266.23C201.85 264.67 193.83 259.58 186.75 255.09C179.2 250.3 171.4 245.34 162.15 247.81C155.94 249.47 150.34 254.09 144.22 262.94C142.33 255.87 141.09 248.54 140.57 241.02H251.68C256.57 256.01 276.2 269.39 286.31 273.94C301.4 280.7 311.18 272.03 316.29 266.91C316.98 268.89 317.24 270.81 317.62 273.59C317.77 274.69 317.93 275.84 318.13 277.1C320.47 291.52 324.17 306.4 329.38 322.41C309.4 338.84 283.83 348.72 255.99 348.72C239.42 348.71 223.66 345.2 209.4 338.9ZM121.43 206.27H368.72C389.27 206.27 405.98 189.55 405.98 169.01C405.98 156.06 399.34 144.64 389.28 137.96V78.21C389.28 77.25 389.11 76.3 388.77 75.4L377.71 45.86V43.13C383.09 41.77 387.09 36.91 387.09 31.12V12.42C387.09 5.56998 381.51 -0.0100195 374.66 -0.0100195H312.01C305.17 -0.0100195 299.61 5.56998 299.61 12.42V31.13C299.61 36.92 303.6 41.77 308.96 43.14V45.87L297.92 75.4C297.58 76.3 297.41 77.25 297.41 78.21V131.74H287.47C285.93 131.74 284.41 131.85 282.92 132.03C278.83 98.34 281.27 62.1 290.64 16.05C291.37 12.44 290.4 8.65998 287.97 5.67998C285.1 2.15998 280.35 -0.0200195 275.59 -0.0200195H128.09C123.33 -0.0200195 118.58 2.15998 115.71 5.67998C113.28 8.64998 112.31 12.43 113.04 16.05C123.31 66.45 130.6 126.41 106.74 188.96C105.39 192.5 105.89 196.38 108.11 199.6C110.89 203.65 116.12 206.27 121.43 206.27ZM324.49 50.12C324.83 49.22 325 48.27 325 47.31V43.53H361.71V47.31C361.71 48.27 361.88 49.22 362.22 50.12L370.96 73.46C363.53 74.34 356.54 75.59 349.72 76.82C337.7 78.99 326.23 81.05 313.44 80.83V79.65L324.49 50.12ZM315.64 16H371.09V27.51H315.64V16ZM313.43 96.86C314.06 96.87 314.69 96.88 315.31 96.88C328.82 96.88 340.85 94.71 352.56 92.59C359.25 91.38 366.11 90.15 373.27 89.32V132.03C371.78 131.85 370.26 131.74 368.72 131.74H313.43V96.86ZM368.72 147.76C380.43 147.76 389.97 157.29 389.97 169.01C389.97 180.73 380.44 190.26 368.72 190.26H362.95V176.24C362.95 171.82 359.37 168.23 354.94 168.23C350.51 168.23 346.93 171.81 346.93 176.24V190.26H336.1V176.24C336.1 171.82 332.52 168.23 328.09 168.23C323.66 168.23 320.08 171.81 320.08 176.24V190.26H309.25V176.24C309.25 171.82 305.67 168.23 301.24 168.23C296.81 168.23 293.23 171.81 293.23 176.24V190.26H287.46C275.73 190.26 266.19 180.73 266.19 169.01C266.19 160.3 271.46 152.81 278.98 149.54C279.13 149.49 279.27 149.42 279.41 149.36C281.9 148.34 284.61 147.77 287.46 147.77H368.72V147.76ZM129.37 16H274.33C264.8 63.94 262.66 101.85 267.5 137.57C257.11 144.19 250.2 155.8 250.2 169C250.2 176.89 252.68 184.21 256.88 190.25H123.35C146.21 126.82 139.51 66.82 129.37 16ZM256.11 110.55C245.36 100.05 232.15 95.92 219.86 99.22C216.02 100.25 212.46 101.96 209.25 104.27V93.16C219.71 85.57 225.63 75.03 225.63 63.67C225.63 50.97 218.23 39.29 205.33 31.62C204.091 30.8836 202.676 30.4949 201.235 30.4949C199.794 30.4949 198.379 30.8836 197.14 31.62C184.22 39.3 176.81 50.99 176.81 63.67C176.81 75.02 182.74 85.56 193.22 93.16V103.47C190.33 101.57 187.18 100.13 183.8 99.22C171.52 95.92 158.31 100.05 147.55 110.55C146.519 111.557 145.779 112.823 145.408 114.215C145.037 115.607 145.048 117.074 145.44 118.46C149.54 132.92 158.92 143.09 171.16 146.37C173.92 147.11 176.73 147.48 179.56 147.48C184.14 147.48 188.75 146.51 193.21 144.63V167.78C193.21 172.2 196.79 175.79 201.22 175.79C205.65 175.79 209.23 172.21 209.23 167.78V144.11C214.07 146.33 219.08 147.48 224.07 147.48C226.89 147.48 229.7 147.12 232.46 146.37C244.71 143.09 254.09 132.91 258.19 118.45C259.02 115.64 258.21 112.6 256.11 110.55ZM175.34 130.91C169.92 129.46 165.42 125.13 162.57 118.79C168.19 114.72 174.24 113.23 179.66 114.69C185.09 116.15 189.59 120.47 192.43 126.8C186.81 130.87 180.76 132.37 175.34 130.91ZM201.25 48.23C206.63 52.61 209.63 58.06 209.63 63.67C209.63 69.3 206.63 74.76 201.25 79.14C195.86 74.75 192.85 69.29 192.85 63.67C192.84 58.06 195.85 52.61 201.25 48.23ZM228.34 130.91C222.93 132.37 216.88 130.87 211.25 126.8C214.09 120.46 218.59 116.15 224.02 114.69C229.44 113.23 235.49 114.72 241.11 118.79C238.27 125.14 233.77 129.46 228.34 130.91Z" fill="white"/>
</g>
<defs>
<clipPath id="clip0_2553_14">
<rect width="512" height="512" fill="white"/>
</clipPath>
</defs>
</svg>
