<svg width="512" height="512" viewBox="0 0 512 512" fill="none" xmlns="http://www.w3.org/2000/svg">
<g clip-path="url(#clip0_2553_2)">
<path d="M34.1748 264.506C42.4996 264.515 50.5406 261.481 56.7843 255.974L256.007 79.7446L455.238 255.973C469.374 268.46 490.956 267.124 503.443 252.987C515.93 238.851 514.594 217.268 500.457 204.781L426.646 139.494V42.6733C426.646 28.5375 415.186 17.0773 401.05 17.0773H366.923C352.788 17.0773 341.327 28.5375 341.327 42.6733V64.003L278.608 8.54559C265.655 -2.75966 246.342 -2.75966 233.388 8.54559L11.5562 204.781C6.35491 209.369 2.67485 215.433 1.00621 222.165C-0.662438 228.897 -0.240466 235.978 2.21592 242.464C4.67231 248.95 9.04652 254.534 14.756 258.472C20.4654 262.41 27.239 264.514 34.1748 264.506ZM358.391 42.6733C358.391 41.5529 358.611 40.4435 359.04 39.4084C359.469 38.3733 360.097 37.4328 360.89 36.6405C361.682 35.8483 362.622 35.2198 363.657 34.7911C364.693 34.3623 365.802 34.1416 366.922 34.1416H401.05C402.171 34.1416 403.28 34.3623 404.315 34.7911C405.35 35.2198 406.291 35.8483 407.083 36.6405C407.875 37.4328 408.504 38.3733 408.932 39.4084C409.361 40.4435 409.582 41.5529 409.582 42.6733V124.393L358.39 79.1047V42.6733H358.391ZM22.8435 217.579L244.676 21.3436C251.179 15.6915 260.852 15.6915 267.355 21.3436L489.188 217.58C490.868 219.067 492.24 220.869 493.224 222.886C494.208 224.902 494.785 227.092 494.922 229.332C495.06 231.571 494.755 233.816 494.025 235.937C493.295 238.059 492.154 240.015 490.668 241.696C489.182 243.377 487.379 244.748 485.363 245.732C483.346 246.716 481.156 247.293 478.917 247.431C476.677 247.568 474.433 247.263 472.311 246.533C470.19 245.803 468.233 244.663 466.552 243.176L261.655 61.9644C260.095 60.5871 258.087 59.8271 256.007 59.8271C253.926 59.8271 251.918 60.5871 250.358 61.9644L45.513 243.175C42.1124 246.138 37.679 247.637 33.1784 247.345C28.6779 247.054 24.4747 244.996 21.4845 241.62C18.4943 238.244 16.9593 233.823 17.2138 229.32C17.4684 224.817 19.4919 220.597 22.8435 217.579ZM494.904 426.614H493.684C495.411 420.113 495.168 413.246 492.985 406.884C490.802 400.522 486.778 394.952 481.423 390.881C476.069 386.81 469.625 384.422 462.911 384.019C456.197 383.617 449.515 385.219 443.713 388.621C437.919 385.146 431.216 383.486 424.47 383.857C417.723 384.227 411.243 386.611 405.864 390.7C400.486 394.789 396.456 400.396 394.295 406.798C392.134 413.199 391.941 420.102 393.74 426.614H392.52C383.096 426.614 375.456 434.254 375.456 443.678V460.743C375.484 489.003 398.388 511.907 426.648 511.935H460.776C489.037 511.907 511.94 489.003 511.968 460.743V443.678C511.967 434.254 504.327 426.614 494.904 426.614ZM477.839 418.082C477.832 421.084 477.025 424.029 475.502 426.614H459.555C460.736 422.458 461.065 418.105 460.522 413.818C459.98 409.532 458.577 405.399 456.399 401.667C457.823 401.258 459.295 401.04 460.776 401.018C470.199 401.018 477.839 408.658 477.839 418.082ZM409.583 418.082C409.592 414.783 410.558 411.557 412.364 408.796C414.169 406.034 416.736 403.855 419.754 402.523C422.773 401.19 426.112 400.761 429.369 401.288C432.626 401.814 435.661 403.274 438.105 405.489C439.886 407.065 441.308 409.005 442.275 411.178C443.242 413.35 443.731 415.705 443.711 418.082C443.704 421.084 442.897 424.029 441.373 426.614H411.92C410.397 424.028 409.59 421.083 409.583 418.082ZM494.904 460.742C494.904 479.59 479.624 494.87 460.776 494.87H426.648C407.8 494.87 392.52 479.59 392.52 460.742V443.677H494.905L494.904 460.742Z" fill="white"/>
<path d="M25.6421 511.934H128.026C142.162 511.934 153.622 500.474 153.622 486.338V414.464C158.997 416.844 164.809 418.076 170.687 418.081H179.218V469.274C179.165 487.675 190.952 504.022 208.426 509.787C225.9 515.552 245.1 509.425 256.007 494.606C266.913 509.426 286.113 515.552 303.587 509.787C321.062 504.022 332.848 487.675 332.795 469.274V418.081H341.326C364.875 418.053 383.958 398.97 383.987 375.421V315.697C384.147 275.063 355.498 240.012 315.645 232.083C315.645 231.503 315.73 230.931 315.73 230.376C315.73 197.391 288.99 170.653 256.007 170.653C223.023 170.653 196.283 197.392 196.283 230.376C196.283 230.965 196.351 231.537 196.368 232.083C156.515 240.012 127.866 275.063 128.026 315.697V358.358H25.6421C11.5063 358.358 0.0460205 369.818 0.0460205 383.954V486.338C0.0460205 500.475 11.5063 511.934 25.6421 511.934ZM221.879 494.871C207.743 494.871 196.283 483.41 196.283 469.275V418.082C215.131 418.082 230.41 402.803 230.41 383.955C230.163 365.21 215.027 350.075 196.283 349.827C196.283 335.691 207.743 324.231 221.879 324.231C235.866 324.586 247.12 335.84 247.475 349.827V469.276C247.475 483.41 236.015 494.871 221.879 494.871ZM315.731 469.275C315.731 483.41 304.271 494.871 290.135 494.871C275.999 494.871 264.539 483.41 264.539 469.275V349.826C264.539 335.69 275.999 324.23 290.135 324.23C304.195 324.414 315.547 335.766 315.731 349.826C296.986 350.074 281.852 365.21 281.604 383.954C281.604 402.802 296.883 418.081 315.731 418.081V469.275ZM256.007 187.718C279.567 187.718 298.667 206.818 298.667 230.378C298.667 253.939 279.567 273.039 256.007 273.039C232.446 273.039 213.346 253.939 213.346 230.378C213.375 206.829 232.458 187.746 256.007 187.718ZM145.091 315.698C144.981 283.396 167.641 255.486 199.277 248.961C207.333 273.47 230.216 290.036 256.016 290.036C281.816 290.036 304.698 273.47 312.754 248.961C344.384 255.493 367.035 283.401 366.923 315.698V375.422C366.923 389.558 355.463 401.018 341.327 401.018H315.731C306.307 401.018 298.667 393.378 298.667 383.954C298.791 374.581 306.359 367.013 315.731 366.889H341.327C343.59 366.889 345.76 365.99 347.36 364.39C348.96 362.79 349.859 360.62 349.859 358.358C349.859 356.095 348.96 353.925 347.36 352.325C345.76 350.725 343.59 349.826 341.327 349.826H332.796C332.488 326.395 313.568 307.473 290.135 307.166C283.453 307.182 276.869 308.773 270.917 311.811C264.965 314.848 259.813 319.246 255.88 324.648C245.064 309.745 225.861 303.534 208.367 309.28C190.873 315.026 179.092 331.413 179.219 349.826H170.688C168.425 349.826 166.255 350.725 164.655 352.325C163.055 353.925 162.156 356.095 162.156 358.358C162.156 360.62 163.055 362.79 164.655 364.39C166.255 365.99 168.425 366.889 170.688 366.889H196.284C205.607 367.127 213.11 374.629 213.348 383.954C213.348 393.378 205.708 401.018 196.284 401.018H170.688C156.551 401.018 145.092 389.558 145.092 375.422L145.091 315.698ZM93.8985 375.422V409.55H59.7708V375.422H93.8985ZM17.1104 383.954C17.1104 382.833 17.3311 381.724 17.7598 380.689C18.1886 379.654 18.817 378.713 19.6093 377.921C20.4015 377.129 21.342 376.5 22.3771 376.071C23.4122 375.643 24.5217 375.422 25.6421 375.422H42.7064V409.55C42.7064 418.974 50.3463 426.614 59.7708 426.614H93.8985C103.323 426.614 110.963 418.974 110.963 409.55V375.422H128.027C128.055 384.566 131.049 393.455 136.559 400.753V486.338C136.559 488.601 135.66 490.771 134.06 492.371C132.46 493.971 130.29 494.87 128.027 494.87H25.6431C23.3803 494.87 21.2103 493.971 19.6103 492.371C18.0103 490.771 17.1114 488.601 17.1114 486.338L17.1104 383.954Z" fill="white"/>
<path d="M42.7064 477.806C43.8268 477.806 44.9363 477.586 45.9714 477.157C47.0065 476.728 47.947 476.1 48.7392 475.307C49.5315 474.515 50.1599 473.575 50.5887 472.539C51.0174 471.504 51.2381 470.395 51.2381 469.275V460.743C51.2381 458.48 50.3392 456.31 48.7392 454.71C47.1392 453.11 44.9692 452.211 42.7064 452.211C40.4437 452.211 38.2736 453.11 36.6736 454.71C35.0736 456.31 34.1747 458.48 34.1747 460.743V469.275C34.1747 470.395 34.3954 471.504 34.8242 472.539C35.2529 473.575 35.8814 474.515 36.6736 475.307C37.4659 476.1 38.4064 476.728 39.4415 477.157C40.4766 477.586 41.586 477.806 42.7064 477.806ZM76.8342 477.806C77.9546 477.806 79.064 477.586 80.0991 477.157C81.1342 476.728 82.0747 476.1 82.867 475.307C83.6592 474.515 84.2877 473.575 84.7164 472.539C85.1452 471.504 85.3658 470.395 85.3658 469.275V460.743C85.3658 458.48 84.467 456.31 82.867 454.71C81.267 453.11 79.0969 452.211 76.8342 452.211C74.5714 452.211 72.4013 453.11 70.8013 454.71C69.2013 456.31 68.3025 458.48 68.3025 460.743V469.275C68.3025 470.395 68.5232 471.504 68.9519 472.539C69.3807 473.575 70.0091 474.515 70.8013 475.307C71.5936 476.1 72.5341 476.728 73.5692 477.157C74.6043 477.586 75.7138 477.806 76.8342 477.806Z" fill="white"/>
</g>
<defs>
<clipPath id="clip0_2553_2">
<rect width="512" height="512" fill="white"/>
</clipPath>
</defs>
</svg>
