<svg width="512" height="512" viewBox="0 0 512 512" fill="none" xmlns="http://www.w3.org/2000/svg">
<g clip-path="url(#clip0_2553_36)">
<path d="M468.85 140.81H378.67V24.58C378.67 11.02 367.64 -0.0100098 354.08 -0.0100098H157.92C144.35 -0.0100098 133.3 11.02 133.3 24.58V140.82H43.1501C27.9801 140.82 15.6401 153.16 15.6401 168.33V418.4C15.6401 422.82 19.2201 426.41 23.6501 426.41H204.25C208.53 433.15 213.08 439.78 217.69 446.24C193.44 452.13 178.86 463.43 178.86 477C178.86 499.99 217.67 512.02 256 512.02C294.33 512.02 333.14 499.99 333.14 477C333.14 463.27 318.97 452.19 294.62 446.3C299.25 439.83 303.8 433.19 308.07 426.41H488.35C492.77 426.41 496.36 422.83 496.36 418.4V168.32C496.36 153.16 484.02 140.81 468.85 140.81ZM31.6501 168.32C31.6501 161.98 36.8101 156.83 43.1401 156.83H133.3V410.39H31.6501V168.32ZM297 413.9C296.85 414.13 296.7 414.36 296.57 414.6C287.81 428.91 277.37 442.92 267.64 455.97C265.33 459.07 263.07 462.1 260.88 465.08C259.67 466.73 258.14 467.5 256.13 467.5C254.08 467.49 252.5 466.68 251.3 465.04C248.8 461.6 246.2 458.09 243.57 454.53C234.01 441.59 224.1 428.16 215.73 414.65C215.57 414.36 215.4 414.08 215.21 413.81C194.59 380.22 183.79 346.12 212.22 317.71C224.31 305.62 240.19 299.58 256.07 299.58C271.95 299.58 287.83 305.62 299.91 317.71C328.11 345.9 317.18 380.69 297 413.9ZM317.13 476.99C317.13 483.44 295.55 496 256 496C216.45 496 194.87 483.44 194.87 476.99C194.87 472.38 206.35 464.41 228 460.41C228.9 461.63 229.8 462.85 230.69 464.05C233.3 467.59 235.87 471.06 238.37 474.5C242.61 480.28 248.88 483.48 256.08 483.53C263.26 483.53 269.55 480.34 273.78 474.57C275.94 471.63 278.19 468.62 280.48 465.55C281.73 463.87 282.99 462.18 284.26 460.47C305.74 464.48 317.13 472.41 317.13 476.99ZM311.24 306.38C280.82 275.96 231.32 275.96 200.9 306.38C178.78 328.48 173.31 355.9 184.63 387.87C187.3 395.41 190.79 402.94 194.8 410.39H149.32V24.58C149.32 19.85 153.18 16.01 157.92 16.01H354.08C358.81 16.01 362.65 19.86 362.65 24.58V410.39H317.42C321.1 403.47 324.34 396.46 326.91 389.38C338.8 356.59 333.53 328.66 311.24 306.38ZM480.35 410.39H378.67V156.83H468.85C475.19 156.83 480.34 161.99 480.34 168.32V410.39H480.35ZM256 307.69C229.5 307.69 207.94 329.25 207.94 355.75C207.94 382.25 229.5 403.81 256 403.81C282.5 403.81 304.06 382.25 304.06 355.75C304.06 329.25 282.5 307.69 256 307.69ZM256 387.8C238.33 387.8 223.95 373.42 223.95 355.75C223.95 338.08 238.33 323.7 256 323.7C273.67 323.7 288.05 338.08 288.05 355.75C288.05 373.42 273.67 387.8 256 387.8ZM207.75 47.24H181.98C174.81 47.24 168.98 53.07 168.98 60.24V86.01C168.98 93.18 174.81 99.01 181.98 99.01H207.75C214.92 99.01 220.75 93.18 220.75 86.01V60.24C220.75 53.07 214.92 47.24 207.75 47.24ZM204.74 82.99H185.01V63.26H204.74V82.99ZM268.87 47.24H243.1C235.93 47.24 230.1 53.07 230.1 60.24V86.01C230.1 93.18 235.93 99.01 243.1 99.01H268.87C276.04 99.01 281.87 93.18 281.87 86.01V60.24C281.87 53.07 276.04 47.24 268.87 47.24ZM265.85 82.99H246.12V63.26H265.85V82.99ZM304.22 99H330.01C337.18 99 343.01 93.17 343.01 86V60.24C343.01 53.07 337.18 47.24 330.01 47.24H304.22C297.05 47.24 291.22 53.07 291.22 60.24V86.01C291.22 93.17 297.05 99 304.22 99ZM307.24 63.26H327V82.99H307.24V63.26ZM207.75 112.78H181.98C174.81 112.78 168.98 118.61 168.98 125.78V151.57C168.98 158.74 174.81 164.57 181.98 164.57H207.75C214.92 164.57 220.75 158.74 220.75 151.57V125.78C220.75 118.61 214.92 112.78 207.75 112.78ZM204.74 148.55H185.01V128.79H204.74V148.55ZM268.87 112.78H243.1C235.93 112.78 230.1 118.61 230.1 125.78V151.57C230.1 158.74 235.93 164.57 243.1 164.57H268.87C276.04 164.57 281.87 158.74 281.87 151.57V125.78C281.87 118.61 276.04 112.78 268.87 112.78ZM265.85 148.55H246.12V128.79H265.85V148.55ZM304.22 164.57H330.01C337.18 164.57 343.01 158.74 343.01 151.57V125.78C343.01 118.61 337.18 112.78 330.01 112.78H304.22C297.05 112.78 291.22 118.61 291.22 125.78V151.57C291.22 158.74 297.05 164.57 304.22 164.57ZM307.24 128.79H327V148.55H307.24V128.79ZM207.75 178.34H181.98C174.81 178.34 168.98 184.17 168.98 191.34V217.11C168.98 224.28 174.81 230.11 181.98 230.11H207.75C214.92 230.11 220.75 224.28 220.75 217.11V191.34C220.75 184.17 214.92 178.34 207.75 178.34ZM204.74 214.09H185.01V194.36H204.74V214.09ZM268.87 178.34H243.1C235.93 178.34 230.1 184.17 230.1 191.34V217.11C230.1 224.28 235.93 230.11 243.1 230.11H268.87C276.04 230.11 281.87 224.28 281.87 217.11V191.34C281.87 184.17 276.04 178.34 268.87 178.34ZM265.85 214.09H246.12V194.36H265.85V214.09ZM343.01 217.11V191.34C343.01 184.17 337.18 178.34 330.01 178.34H304.22C297.05 178.34 291.22 184.17 291.22 191.34V217.11C291.22 224.28 297.05 230.11 304.22 230.11H330.01C337.18 230.11 343.01 224.28 343.01 217.11ZM326.99 214.09H307.23V194.36H326.99V214.09ZM442.41 184.67H416.62C409.45 184.67 403.62 190.5 403.62 197.67V223.44C403.62 230.61 409.45 236.44 416.62 236.44H442.41C449.58 236.44 455.41 230.61 455.41 223.44V197.67C455.4 190.5 449.57 184.67 442.41 184.67ZM439.39 220.41H419.63V200.68H439.39V220.41ZM95.3601 184.67H69.5901C62.4201 184.67 56.5901 190.5 56.5901 197.67V223.44C56.5901 230.61 62.4201 236.44 69.5901 236.44H95.3601C102.53 236.44 108.36 230.61 108.36 223.44V197.67C108.36 190.5 102.53 184.67 95.3601 184.67ZM92.3401 220.41H72.6101V200.68H92.3401V220.41Z" fill="white"/>
</g>
<defs>
<clipPath id="clip0_2553_36">
<rect width="512" height="512" fill="white"/>
</clipPath>
</defs>
</svg>
