<svg width="512" height="512" viewBox="0 0 512 512" fill="none" xmlns="http://www.w3.org/2000/svg">
<path d="M446.445 323.801C446.706 322.451 446.666 321.06 446.326 319.727C445.987 318.394 445.357 317.153 444.481 316.092C443.605 315.032 442.505 314.178 441.261 313.593C440.016 313.008 438.657 312.705 437.282 312.707H396.272V303.376C396.264 302.856 396.213 302.338 396.118 301.827C402.93 296.293 414.08 284.793 414.169 268.646C414.062 254.64 408.999 241.847 394.088 217.96C393.251 216.616 392.085 215.509 390.7 214.741C389.316 213.973 387.759 213.57 386.176 213.57C384.593 213.57 383.036 213.973 381.651 214.741C380.267 215.509 379.101 216.616 378.263 217.96C363.352 241.838 358.285 254.63 358.183 268.767C358.276 285.997 371.12 297.973 377.652 302.951C377.647 303.096 377.61 303.231 377.61 303.376V312.707H265.638V267.591L283.208 250.021C286.394 251.561 290.029 252.386 293.953 252.386C296.869 252.386 299.943 251.943 303.088 251.038C323.681 245.122 354.231 216.467 354.007 161.773C353.999 160.311 353.648 158.871 352.982 157.57C352.316 156.268 351.354 155.141 350.173 154.279C348.992 153.417 347.625 152.845 346.183 152.607C344.74 152.37 343.262 152.475 341.867 152.913C336.021 154.76 283.735 184.708 272.487 215.076C269.846 222.2 269.529 229.101 271.432 235.404L265.638 241.203V189.099C277.087 181.573 304.665 160.205 304.837 128.755C304.637 103.626 294.33 80.2336 263.995 36.0511C263.139 34.8021 261.991 33.7805 260.651 33.0747C259.311 32.3689 257.819 32 256.304 32C254.79 32 253.298 32.3689 251.958 33.0747C250.618 33.7805 249.47 34.8021 248.613 36.0511C218.283 80.2242 207.976 103.622 207.771 128.881C207.948 160.228 235.526 181.578 246.976 189.099V278.77L242.52 274.319C249.933 224.482 220.615 208.946 189.501 192.607C184.532 189.999 179.377 187.288 174.133 184.34C172.943 183.667 171.619 183.264 170.256 183.16C168.893 183.056 167.524 183.253 166.246 183.738C164.967 184.222 163.811 184.982 162.859 185.963C161.908 186.945 161.183 188.123 160.738 189.416C151.584 215.837 156.376 245.369 172.948 264.652C184.938 278.607 201.393 285.917 220.237 285.917C222.584 285.917 224.973 285.805 227.39 285.577L246.976 305.163V312.707H130.338V302.895C136.893 297.875 149.644 285.899 149.732 268.65C149.63 254.635 144.563 241.842 129.656 217.955C128.817 216.612 127.65 215.504 126.265 214.737C124.88 213.969 123.323 213.566 121.739 213.566C120.155 213.566 118.598 213.969 117.213 214.737C115.828 215.504 114.661 216.612 113.822 217.955C98.9154 241.842 93.8533 254.635 93.746 268.762C93.8253 284.728 104.855 296.168 111.676 301.733V312.707H75.3312C73.9564 312.707 72.5985 313.011 71.3547 313.596C70.111 314.182 69.012 315.036 68.1365 316.096C67.261 317.156 66.6306 318.396 66.2903 319.728C65.95 321.06 65.9083 322.451 66.1682 323.801C83.6639 414.695 163.631 480.665 256.307 480.665C326.662 480.665 389.656 442.627 423.593 384.546C423.673 384.406 423.756 384.276 423.826 384.131C434.705 365.436 442.352 345.04 446.445 323.801ZM386.176 241.166C392.945 253.389 395.451 261.134 395.507 268.669C395.469 276.026 390.258 282.152 386.171 285.824C382.079 282.157 376.882 276.064 376.84 268.786C376.901 261.162 379.411 253.389 386.176 241.166ZM289.702 222.364C294.741 207.047 318.344 188.735 334.188 178.424C329.476 210.173 311.374 229.241 297.937 233.104C296.934 233.393 291.811 234.732 290.355 232.385C289.25 230.598 287.976 227.622 289.702 222.364ZM187.103 252.489C176.951 240.681 172.836 223.432 175.626 206.394C177.375 207.322 179.111 208.232 180.823 209.132C209.857 224.379 228.085 233.953 224.712 267.064C209.451 268.23 196.266 263.154 187.103 252.489ZM226.433 128.904C226.587 110.084 234.309 91.3468 256.307 58.021C278.304 91.3515 286.026 110.074 286.175 128.778C286.059 150.16 265.829 166.392 256.475 172.76C256.414 172.76 256.363 172.741 256.307 172.741C256.251 172.741 256.199 172.755 256.139 172.76C246.775 166.387 226.555 150.179 226.433 128.904ZM121.739 241.166C128.509 253.389 131.014 261.134 131.07 268.669C131.033 276.026 125.821 282.152 121.739 285.829C117.647 282.162 112.445 276.068 112.408 268.786C112.464 261.162 114.974 253.389 121.739 241.166ZM425.609 331.369C421.856 345.741 416.274 359.572 408.999 372.523C392.53 379.358 372.902 372.033 359.708 367.093C357.344 366.19 354.964 365.328 352.57 364.508C311.112 350.684 283.45 367.009 261.229 380.119C242.613 391.092 227.912 399.761 208.177 392.585C164.219 376.592 142.883 386.804 122.999 400.344C105.946 380.366 93.6394 356.784 87.0044 331.369H425.609ZM256.307 462.003C210.249 462.003 167.694 443.948 136.067 414.065C152.396 403.404 168.119 397.876 201.795 410.118C229.816 420.303 250.601 408.051 270.704 396.191C292.6 383.277 313.268 371.082 346.668 382.209C348.581 382.848 350.765 383.669 353.167 384.57C363.632 388.489 378.753 394.106 394.779 393.966C362.461 435.69 311.929 462.003 256.307 462.003Z" fill="white"/>
</svg>
